<svg width="411" height="124" viewBox="0 0 411 124" fill="none" xmlns="http://www.w3.org/2000/svg">
<path d="M176.208 79.48C173.584 79.48 171.168 79.064 168.96 78.232C166.784 77.368 164.88 76.168 163.248 74.632C161.616 73.064 160.352 71.224 159.456 69.112C158.56 67 158.112 64.696 158.112 62.2C158.112 59.704 158.56 57.4 159.456 55.288C160.352 53.176 161.616 51.352 163.248 49.816C164.912 48.248 166.848 47.048 169.056 46.216C171.264 45.352 173.68 44.92 176.304 44.92C179.152 44.92 181.712 45.384 183.984 46.312C186.288 47.24 188.224 48.6 189.792 50.392L185.856 54.232C184.544 52.92 183.12 51.96 181.584 51.352C180.08 50.712 178.416 50.392 176.592 50.392C174.832 50.392 173.2 50.68 171.696 51.256C170.192 51.832 168.896 52.648 167.808 53.704C166.72 54.76 165.872 56.008 165.264 57.448C164.688 58.888 164.4 60.472 164.4 62.2C164.4 63.896 164.688 65.464 165.264 66.904C165.872 68.344 166.72 69.608 167.808 70.696C168.896 71.752 170.176 72.568 171.648 73.144C173.12 73.72 174.752 74.008 176.544 74.008C178.208 74.008 179.808 73.752 181.344 73.24C182.912 72.696 184.4 71.8 185.808 70.552L189.36 75.208C187.6 76.616 185.552 77.688 183.216 78.424C180.912 79.128 178.576 79.48 176.208 79.48ZM183.456 74.392V61.816H189.36V75.208L183.456 74.392ZM222.934 79.48C220.31 79.48 217.894 79.048 215.686 78.184C213.478 77.32 211.558 76.12 209.926 74.584C208.294 73.016 207.03 71.192 206.134 69.112C205.238 67 204.79 64.696 204.79 62.2C204.79 59.704 205.238 57.416 206.134 55.336C207.03 53.224 208.294 51.4 209.926 49.864C211.558 48.296 213.478 47.08 215.686 46.216C217.894 45.352 220.294 44.92 222.886 44.92C225.51 44.92 227.91 45.352 230.086 46.216C232.294 47.08 234.214 48.296 235.846 49.864C237.478 51.4 238.742 53.224 239.638 55.336C240.534 57.416 240.982 59.704 240.982 62.2C240.982 64.696 240.534 67 239.638 69.112C238.742 71.224 237.478 73.048 235.846 74.584C234.214 76.12 232.294 77.32 230.086 78.184C227.91 79.048 225.526 79.48 222.934 79.48ZM222.886 74.008C224.582 74.008 226.15 73.72 227.59 73.144C229.03 72.568 230.278 71.752 231.334 70.696C232.39 69.608 233.206 68.36 233.782 66.952C234.39 65.512 234.694 63.928 234.694 62.2C234.694 60.472 234.39 58.904 233.782 57.496C233.206 56.056 232.39 54.808 231.334 53.752C230.278 52.664 229.03 51.832 227.59 51.256C226.15 50.68 224.582 50.392 222.886 50.392C221.19 50.392 219.622 50.68 218.182 51.256C216.774 51.832 215.526 52.664 214.438 53.752C213.382 54.808 212.55 56.056 211.942 57.496C211.366 58.904 211.078 60.472 211.078 62.2C211.078 63.896 211.366 65.464 211.942 66.904C212.55 68.344 213.382 69.608 214.438 70.696C215.494 71.752 216.742 72.568 218.182 73.144C219.622 73.72 221.19 74.008 222.886 74.008ZM295.758 79.48C293.134 79.48 290.718 79.064 288.51 78.232C286.334 77.368 284.43 76.168 282.798 74.632C281.166 73.064 279.902 71.224 279.006 69.112C278.11 67 277.662 64.696 277.662 62.2C277.662 59.704 278.11 57.4 279.006 55.288C279.902 53.176 281.166 51.352 282.798 49.816C284.462 48.248 286.398 47.048 288.606 46.216C290.814 45.352 293.23 44.92 295.854 44.92C298.702 44.92 301.262 45.384 303.534 46.312C305.838 47.24 307.774 48.6 309.342 50.392L305.406 54.232C304.094 52.92 302.67 51.96 301.134 51.352C299.63 50.712 297.966 50.392 296.142 50.392C294.382 50.392 292.75 50.68 291.246 51.256C289.742 51.832 288.446 52.648 287.358 53.704C286.27 54.76 285.422 56.008 284.814 57.448C284.238 58.888 283.95 60.472 283.95 62.2C283.95 63.896 284.238 65.464 284.814 66.904C285.422 68.344 286.27 69.608 287.358 70.696C288.446 71.752 289.726 72.568 291.198 73.144C292.67 73.72 294.302 74.008 296.094 74.008C297.758 74.008 299.358 73.752 300.894 73.24C302.462 72.696 303.95 71.8 305.358 70.552L308.91 75.208C307.15 76.616 305.102 77.688 302.766 78.424C300.462 79.128 298.126 79.48 295.758 79.48ZM303.006 74.392V61.816H308.91V75.208L303.006 74.392ZM321.988 79L337.108 45.4H343.252L358.42 79H351.892L338.884 48.712H341.38L328.42 79H321.988ZM328.948 71.224L330.628 66.328H348.772L350.452 71.224H328.948ZM382.709 79.48C380.085 79.48 377.573 79.112 375.173 78.376C372.773 77.608 370.869 76.632 369.461 75.448L371.621 70.6C372.965 71.656 374.629 72.536 376.613 73.24C378.597 73.944 380.629 74.296 382.709 74.296C384.469 74.296 385.893 74.104 386.981 73.72C388.069 73.336 388.869 72.824 389.381 72.184C389.893 71.512 390.149 70.76 390.149 69.928C390.149 68.904 389.781 68.088 389.045 67.48C388.309 66.84 387.349 66.344 386.165 65.992C385.013 65.608 383.717 65.256 382.277 64.936C380.869 64.616 379.445 64.248 378.005 63.832C376.597 63.384 375.301 62.824 374.117 62.152C372.965 61.448 372.021 60.52 371.285 59.368C370.549 58.216 370.181 56.744 370.181 54.952C370.181 53.128 370.661 51.464 371.621 49.96C372.613 48.424 374.101 47.208 376.085 46.312C378.101 45.384 380.645 44.92 383.717 44.92C385.733 44.92 387.733 45.176 389.717 45.688C391.701 46.2 393.429 46.936 394.901 47.896L392.933 52.744C391.429 51.848 389.877 51.192 388.277 50.776C386.677 50.328 385.141 50.104 383.669 50.104C381.941 50.104 380.533 50.312 379.445 50.728C378.389 51.144 377.605 51.688 377.093 52.36C376.613 53.032 376.373 53.8 376.373 54.664C376.373 55.688 376.725 56.52 377.429 57.16C378.165 57.768 379.109 58.248 380.261 58.6C381.445 58.952 382.757 59.304 384.197 59.656C385.637 59.976 387.061 60.344 388.469 60.76C389.909 61.176 391.205 61.72 392.357 62.392C393.541 63.064 394.485 63.976 395.189 65.128C395.925 66.28 396.293 67.736 396.293 69.496C396.293 71.288 395.797 72.952 394.805 74.488C393.845 75.992 392.357 77.208 390.341 78.136C388.325 79.032 385.781 79.48 382.709 79.48Z" fill="#FFFDED"/>
<path d="M124.111 62C124.111 96.2395 96.3255 124 62.0554 124C27.7853 124 0 96.2395 0 62C0 52.5657 2.10471 43.6325 5.87975 35.6242C3.50914 41.5249 2.27401 47.8194 2.23917 54.1777C2.23917 82.2533 24.9256 86.3143 34.5804 86.2265C49.2513 86.0922 66.4045 78.9105 80.853 65.6063L78.4174 79.298C77.8692 82.4238 79.917 85.1777 83.0508 85.1983H84.3436C87.586 85.1983 89.8924 82.5582 90.4768 79.2928L95.6791 50.0392C96.2997 46.7945 94.1639 44.1492 90.9163 44.1492H61.5797C58.3217 44.1492 55.3379 45.8748 54.7536 49.1505L54.526 50.468C54.0606 53.5835 56.2325 55.9292 59.3405 55.9292H74.6475C74.4002 56.166 74.1554 56.4054 73.9132 56.6473C63.3637 66.619 50.3528 72.0853 39.5758 72.0853C28.8196 72.0853 16.7705 65.3015 16.7705 50.0288C16.7705 18.3675 46.4898 0 62.0554 0C96.2583 0 124.111 27.7605 124.111 62Z" fill="#FFB17A"/>
</svg>
